<?xml version="1.0" encoding="UTF-8" standalone="no"?>
<!-- Created with Inkscape (http://www.inkscape.org/) -->

<svg
     xmlns:dc="http://purl.org/dc/elements/1.1/"
     xmlns:cc="http://creativecommons.org/ns#"
     xmlns:rdf="http://www.w3.org/1999/02/22-rdf-syntax-ns#"
     xmlns:svg="http://www.w3.org/2000/svg"
     xmlns="http://www.w3.org/2000/svg"
     xmlns:sodipodi="http://sodipodi.sourceforge.net/DTD/sodipodi-0.dtd"
     xmlns:inkscape="http://www.inkscape.org/namespaces/inkscape"
     width="1782.8571"
     height="1073.8104"
     id="svg2"
     version="1.1"
     inkscape:version="0.48.5 r10040"
     sodipodi:docname="edgebit151.svg">
    <defs
         id="defs4" />
    <sodipodi:namedview
         id="base"
         pagecolor="#ffffff"
         bordercolor="#666666"
         borderopacity="1.0"
         inkscape:pageopacity="0.0"
         inkscape:pageshadow="2"
         inkscape:zoom="0.35"
         inkscape:cx="807.88515"
         inkscape:cy="870.37819"
         inkscape:document-units="px"
         inkscape:current-layer="layer1"
         showgrid="false"
         fit-margin-top="0"
         fit-margin-left="0"
         fit-margin-right="0"
         fit-margin-bottom="0"
         borderlayer="true"
         inkscape:showpageshadow="false" />
    <metadata
         id="metadata7">
        <rdf:RDF>
            <cc:Work
                 rdf:about="">
                <dc:format>image/svg+xml</dc:format>
                <dc:type
                     rdf:resource="http://purl.org/dc/dcmitype/StillImage" />
                <dc:title></dc:title>
            </cc:Work>
        </rdf:RDF>
    </metadata>
    <g
         inkscape:label="Layer 1"
         inkscape:groupmode="layer"
         id="layer1"
         transform="translate(-3037.1428,347.63782)">
        <rect
             style="color:#000000;fill:#1c0e12;fill-opacity:1;fill-rule:nonzero;stroke:none;stroke-width:1;marker:none;visibility:visible;display:inline;overflow:visible;enable-background:accumulate;stroke-linecap:butt;stroke-linejoin:miter;stroke-miterlimit:4;stroke-opacity:1;stroke-dasharray:none;stroke-dashoffset:0"
             id="rect3064"
             width="1782.8571"
             height="1073.8104"
             x="3037.1428"
             y="-347.63782" />
        <path
             style="color:#000000;fill:#552d34;fill-opacity:1;fill-rule:nonzero;stroke-width:1;stroke-linecap:butt;stroke-linejoin:miter;stroke-miterlimit:4;stroke-opacity:1;stroke-dasharray:none;stroke-dashoffset:0;marker:none;visibility:visible;display:inline;overflow:visible;enable-background:accumulate;stroke:none"
             d="M 2932.5312,-347.625 C 2953.1462,-290.13487 2981.3994,-233.69719 2982.4062,-171.5625 2984.4585,-122.16375 2973.0312,-73.70928 2958.875,-26.75 2940.7883,36.586535 2921.4559,101.91513 2928.5312,168.53125 2935.7495,238.66946 2971.987,304.24629 3024.4688,350.625 3085.0192,406.13094 3161.4936,439.81397 3237.7188,468.09375 3320.5754,499.23987 3406.3514,528.11735 3476.625,583.28125 3524.3955,620.48409 3562.0023,668.51191 3598.4688,716.625 3638.1295,767.64384 3681.8594,816.97566 3737.6562,850.53125 3816.8159,900.24726 3908.8121,923.8688 3999.75,941.5625 4086.1318,958.70487 4172.7061,975.24276 4259.8125,988.28125 4327.2485,997.62544 4398.277,1000.4803 4463.0938,976.375 4493.1064,965.63678 4519.9523,947.82898 4546.9062,931.28125 4566.2031,919.92224 4590.0466,911.43205 4612.125,920 4631.7012,927.36941 4644.6625,944.96405 4661.0312,957.25 4671.4119,966.67393 4682.8296,976.27465 4688.0938,989.59375 4693.2722,1009.9842 4686.6567,1031.8053 4690.8125,1052.375 L 4741.3125,1052.375 C 4741.2632,1052.249 4741.1967,1052.1208 4741.1562,1052 4723.1125,1012.4041 4715.7135,966.52403 4685.8438,933.40625 4656.2329,901.39271 4611.1484,887.84012 4568.2812,888.4375 4499.5229,887.77132 4432.8723,908.51301 4364.9062,914.8125 4288.6829,922.35381 4210.9647,917.84801 4136.9062,898.09375 4012.045,866.02334 3900.1699,798.83926 3794.3438,727.03125 3707.5634,667.38307 3622.3181,605.25676 3536.9688,543.46875 3460.8558,487.52823 3384.99,430.59625 3314.625,367.53125 3240.5135,300.60103 3172.2607,224.56665 3126.0625,135.125 3086.4101,58.146355 3065.0694,-27.485315 3058.1875,-113.71875 3053.4645,-162.7355 3059.5545,-260.53545 3061.3125,-347.625 L 2932.5312,-347.625 z"
             id="use3848"
             inkscape:connector-curvature="0" />
        <path
             style="color:#000000;fill:#643a42;fill-opacity:1;fill-rule:nonzero;stroke:none;stroke-width:1;marker:none;visibility:visible;display:inline;overflow:visible;enable-background:accumulate;stroke-linecap:butt;stroke-linejoin:miter;stroke-miterlimit:4;stroke-opacity:1;stroke-dasharray:none;stroke-dashoffset:0"
             d="M 2620,352.36218 2620,-347.63782 2680.5314,-347.63782 C 2927.7603,-347.63782 2941.0935,-347.54847 2941.6654,-345.88782 2942.2675,-344.13953 2952.0609,-318.53367 2963.0205,-290.05249 2976.1764,-255.86366 2984.0584,-227.78005 2988.1157,-200.63782 2990.0724,-187.54845 2990.4285,-181.24971 2990.4052,-160.13782 2990.3573,-116.71044 2985.4947,-90.34508 2963.1079,-12.1285 2942.8921,58.50286 2936.8626,89.24082 2935.3535,129.36218 2933.2481,185.33585 2948.6316,240.17547 2979.3437,286.18012 3013.7598,337.73309 3064.0923,379.65066 3134.4236,415.33288 3168.131,432.43418 3196.0497,444.06595 3266.5,470.35991 3340.5119,497.98318 3363.9295,507.70956 3398.9462,525.37076 3450.6832,551.46511 3490.1971,580.08445 3527.5006,618.48072 3548.7713,640.37451 3562.8405,657.26698 3600.9751,706.69968 3652.7478,773.81098 3686.7182,807.45088 3734.5,838.92548 3787.7618,874.00978 3850.6039,899.18118 3936.7218,919.92528 3990.9797,932.99498 4185.1525,969.57318 4249.3809,978.82388 4332.0243,990.72688 4387.373,989.88338 4438.1399,975.94718 4468.8348,967.52098 4489.2417,957.79078 4529.5,932.38538 4545.3729,922.36868 4561.978,914.14728 4572,911.34328 4582.4653,908.41518 4596.549,907.75268 4606,909.74398 4615.8745,911.82458 4627.9012,917.93188 4636.2102,925.08528 4685.4306,967.45978 4691.4557,973.81108 4696.1689,988.29008 4698.0469,994.05928 4698.2685,996.69478 4697.9831,1009.8622 4697.42,1035.8348 4697.4776,1083.7373 4698.2618,1088.1122 L 4699.0236,1092.3622 3559.5118,1092.3622 2620,1092.3622 z"
             id="use3072"
             inkscape:connector-curvature="0"
             sodipodi:nodetypes="ccsssssssssssssssssssssssscccc" />
        <path
             style="color:#000000;fill:#432329;fill-opacity:1;fill-rule:nonzero;stroke-width:1;stroke-linecap:butt;stroke-linejoin:miter;stroke-miterlimit:4;stroke-opacity:1;stroke-dasharray:none;stroke-dashoffset:0;marker:none;visibility:visible;display:inline;overflow:visible;enable-background:accumulate;stroke:none"
             d="M 3133.1562,-347.625 C 3222.6494,-168.42656 3306.74,13.931796 3408.0312,186.65625 3489.9246,323.63996 3588.8833,452.35523 3713,553.6875 3829.1402,649.26678 3965.2609,719.7988 4109.4062,762.53125 4211.7227,793.69367 4317.6474,811.30437 4422.625,831.4375 4500.816,847.21184 4579.9869,865.87347 4649.875,905.59375 4696.8885,932.84827 4739.0425,971.90109 4758.8125,1023.5938 4762.7041,1032.8995 4765.3277,1042.7875 4768.4375,1052.375 L 4820,1052.375 4820,934.4375 C 4756.0482,838.46098 4669.1467,759.77365 4576.8438,691.4375 4401.9645,562.88958 4208.7056,461.89604 4031.5312,336.78125 3882.8119,233.07658 3743.5972,114.05534 3628.8125,-26.5625 3547.6604,-124.98991 3478.7744,-233.20988 3422.5312,-347.625 L 3133.1562,-347.625 z"
             id="use3899"
             inkscape:connector-curvature="0" />
        <path
             style="color:#000000;fill:#552d34;fill-opacity:1;fill-rule:nonzero;stroke-width:1;stroke-linecap:butt;stroke-linejoin:miter;stroke-miterlimit:4;stroke-opacity:1;stroke-dasharray:none;stroke-dashoffset:0;marker:none;visibility:visible;display:inline;overflow:visible;enable-background:accumulate;stroke:none"
             d="M 4732.1063,1050.5609 C 4729.9794,1046.5867 4722.3547,1026.6563 4714.8148,1005.3622 4701.9939,969.15328 4693.5541,953.26178 4679.0133,937.95098 4657.8118,915.62688 4630.0903,902.68918 4592.9756,897.79738 4576.0847,895.57098 4538.1477,896.31298 4516,899.30268 4500.6702,901.37208 4494.1097,902.45758 4437.5,912.29078 4405.6986,917.81478 4380.8475,921.31308 4354,924.04498 4328.9285,926.59618 4261.7442,926.59328 4237.5,924.03988 4146.9948,914.50798 4066.8642,890.44628 3977,845.81668 3882.209,798.74028 3797.496,742.78898 3564.5,573.36808 3404.5013,457.02647 3329.9646,396.62176 3261,327.41096 3149.8622,215.87636 3088.7698,107.4042 3062.5218,-24.99518 3054.6985,-64.45721 3050.0744,-105.0491 3044.5067,-183.13782 3038.5789,-266.27694 3033.9702,-307.34985 3026.4131,-344.38782 L 3025.75,-347.63782 3088.2097,-347.63782 3150.6694,-347.63782 3178.4907,-291.38782 C 3193.7924,-260.45032 3224.4296,-198.46282 3246.5733,-153.63782 3343.413,42.39263 3393.6358,135.53186 3451.575,226.54247 3603.6286,465.3877 3784.2496,621.23132 4015,712.67768 4104.3918,748.10358 4188.9736,770.86268 4330,797.43738 4353.375,801.84218 4385.55,807.93238 4401.5,810.97128 4514.522,832.50498 4578.7611,851.34908 4635,879.46698 4705.9062,914.91818 4752.4989,961.70958 4774.6236,1019.6861 4777.5394,1027.3268 4783.9938,1049.3072 4783.9985,1051.6122 4783.9993,1052.0247 4772.5408,1052.3622 4758.5352,1052.3622 4735.0301,1052.3622 4732.9962,1052.2236 4732.1063,1050.5609 z"
             id="use3844"
             inkscape:connector-curvature="0" />
        <path
             style="color:#000000;fill:#2f191c;fill-opacity:1;fill-rule:nonzero;stroke:none;stroke-width:1;marker:none;visibility:visible;display:inline;overflow:visible;enable-background:accumulate;stroke-linecap:butt;stroke-linejoin:miter;stroke-miterlimit:4;stroke-opacity:1;stroke-dasharray:none;stroke-dashoffset:0"
             d="M 4811.637,951.10988 C 4801.1702,934.59328 4784.3881,911.21598 4770.5938,893.93728 4702.1469,808.20048 4611.4978,730.34098 4472.5,637.90126 4423.0733,605.03028 4391.9477,585.40179 4256,501.37136 4126.2287,421.15865 4047.3003,369.03323 3971.6188,313.56217 3821.9995,203.89797 3702.4016,91.4111 3602.4701,-33.63782 3529.9009,-124.44697 3468.9909,-219.6647 3417.1193,-323.38782 L 3404.992,-347.63782 3804.8603,-347.63782 4204.7286,-347.63782 4231.0701,-314.88782 C 4245.5579,-296.87532 4288.7277,-243.43782 4327.0031,-196.13782 4534.4559,60.22834 4612.9275,162.11528 4700.9271,289.36218 4740.1181,346.03204 4792.8753,427.92538 4815.3416,466.96395 L 4820.004,475.06571 4819.752,719.29168 4819.5,963.51768 4811.637,951.10988 z"
             id="use3924"
             inkscape:connector-curvature="0" />
        <path
             inkscape:connector-curvature="0"
             id="path3078"
             d="M 2937.138,-618.6387 2937.138,-806.1642 2943.388,-800.8763 C 2952.623,-793.063 2960.1309,-787.4435 2974.7132,-777.43 3015.5232,-749.4062 3061.0467,-727.1722 3135.638,-698.8329 3153.788,-691.9373 3179.888,-682.0251 3193.638,-676.8059 3247.2829,-656.4435 3271.4295,-646.152 3300.5576,-631.236 3350.1628,-605.8338 3386.8004,-579.5587 3422.6723,-543.6596 3442.969,-523.34741 3457.3371,-506.52471 3488.5463,-466.53181 3502.2459,-448.97651 3514.1282,-433.82561 3514.9513,-432.86311 3516.3762,-431.19701 3502.5584,-431.11311 3226.793,-431.11311 L 2937.138,-431.11311 2937.138,-618.6387 z"
             style="fill:#6c4049" />
        <path
             inkscape:connector-curvature="0"
             id="path3076"
             d="M 3489.9772,-464.78641 C 3457.2027,-506.68701 3443.0843,-523.23201 3422.6723,-543.6596 3386.8004,-579.5587 3350.1628,-605.8338 3300.5576,-631.236 3271.4295,-646.152 3247.2829,-656.4435 3193.638,-676.8059 3179.888,-682.0251 3153.788,-691.9373 3135.638,-698.8329 3074.4344,-722.0858 3035.3798,-740.0856 2998.7132,-761.9399 2979.8187,-773.2016 2952.1211,-792.854 2940.888,-802.9691 L 2937.138,-806.3458 2937.254,-1115.4795 C 2937.3178,-1285.503 2937.5294,-1423.9381 2937.7241,-1423.1131 2938.2214,-1421.0066 2941.6676,-1378.8823 2944.637,-1338.6131 2952.3998,-1233.3393 2959.034,-1187.7808 2974.7746,-1131.6523 3012.5286,-997.0268 3093.0393,-883.2302 3239.5759,-757.3726 3297.468,-707.6502 3368.0612,-653.8257 3509.638,-551.4612 3577.5144,-502.38441 3628.8703,-465.87241 3663.0524,-442.38961 L 3679.4668,-431.11311 3597.8916,-431.11311 3516.3165,-431.11311 3489.9772,-464.78641 z"
             style="fill:#643a42" />
        <path
             inkscape:connector-curvature="0"
             id="path3074"
             d="M 3663.0524,-442.38961 C 3599.7214,-485.89741 3455.5084,-589.8986 3375.638,-649.6625 3237.3735,-753.1203 3157.1051,-825.914 3092.8694,-906.0993 3028.6492,-986.2652 2988.4884,-1068.1088 2966.7523,-1163.1131 2956.3652,-1208.513 2951.243,-1249.1706 2944.6421,-1338.6131 2943.2214,-1357.8631 2941.1046,-1383.7381 2939.9382,-1396.1131 2938.2792,-1413.7123 2937.7288,-1428.0336 2937.4111,-1461.8631 L 2937.0048,-1505.1131 2993.8729,-1505.1131 3050.741,-1505.1131 3089.103,-1427.3631 C 3145.7087,-1312.6374 3222.6441,-1159.2278 3242.1868,-1122.1131 3272.1518,-1065.2048 3296.4185,-1021.6651 3321.6549,-979.53 3436.6885,-787.4688 3560.9293,-651.003 3712.138,-550.6242 3781.1284,-504.82541 3850.8434,-469.27921 3933.7256,-437.64121 L 3950.638,-431.18541 3815.0524,-431.14931 3679.4668,-431.11311 3663.0524,-442.38961 z"
             style="fill:#552d34" />
        <path
             inkscape:connector-curvature="0"
             id="path3072"
             d="M 3933.7256,-437.64121 C 3891.1395,-453.89731 3858.6399,-468.19441 3821.138,-487.17041 3656.1403,-570.6595 3519.0878,-691.9791 3398.6078,-861.1968 3365.7596,-907.3329 3329.3117,-964.9329 3296.3519,-1022.7953 3263.6875,-1080.1392 3236.5979,-1131.6565 3184.7081,-1235.1131 3147.8609,-1308.5783 3051.138,-1503.8171 3051.138,-1504.7296 3051.138,-1504.9405 3108.2862,-1505.1131 3178.134,-1505.1131 L 3305.13,-1505.1131 3317.2629,-1480.8631 C 3421.4178,-1272.6883 3564.4707,-1094.3916 3755.1945,-935.0387 3860.3226,-847.2025 3963.4572,-775.4508 4156.138,-656.0988 4318.979,-555.2304 4365.9949,-525.08411 4424.138,-484.25861 4446.1765,-468.78411 4479.8908,-444.09771 4491.2701,-435.10291 L 4496.3176,-431.11311 4223.4778,-431.14931 3950.638,-431.18541 3933.7256,-437.64121 z"
             style="fill:#432329" />
        <path
             inkscape:connector-curvature="0"
             id="path3070"
             d="M 4471.5826,-449.87711 C 4401.3037,-502.43051 4348.6936,-536.82441 4156.138,-656.0988 4052.2153,-720.4715 3983.6218,-764.925 3924.138,-806.4513 3731.8437,-940.6942 3586.5838,-1077.2489 3469.9489,-1233.4213 3410.3017,-1313.2882 3361.6862,-1392.074 3317.2629,-1480.8631 L 3305.13,-1505.1131 3705.0153,-1505.1131 4104.9006,-1505.1131 4107.6303,-1501.5343 C 4109.1317,-1499.5659 4150.2173,-1448.6034 4198.9316,-1388.2843 4419.0143,-1115.7734 4487.5174,-1028.0278 4563.2619,-921.6131 4618.2086,-844.4177 4677.029,-755.2524 4711.4722,-696.9425 L 4720.138,-682.2718 4720.138,-556.6925 4720.138,-431.11311 4608.388,-431.12711 4496.638,-431.14101 4471.5826,-449.87711 z"
             style="fill:#2f191c" />
        <path
             inkscape:connector-curvature="0"
             id="path3068"
             d="M 4712.7086,-694.8631 C 4680.6466,-749.7111 4618.4602,-844.0643 4563.2619,-921.6131 4487.2169,-1028.4499 4416.4868,-1119.0061 4194.2097,-1394.1131 4147.3274,-1452.1381 4108.0766,-1500.8506 4106.9855,-1502.3631 L 4105.0018,-1505.1131 4412.5699,-1505.1131 4720.138,-1505.1131 4720.138,-1094.1131 C 4720.138,-868.0631 4720.0118,-683.1131 4719.8576,-683.1131 4719.7034,-683.1131 4716.4863,-688.4006 4712.7086,-694.8631 z"
             style="fill:#1c0e12" />
    </g>
</svg>
